<svg viewBox="0 0 120 120" xmlns="http://www.w3.org/2000/svg" aria-label="走春參拜">
  <g fill="none" stroke="#f1d990" stroke-width="2.5" stroke-linecap="round" stroke-linejoin="round">
    <!-- 三柱香 -->
    <path d="M44 16 L 44 50"/>
    <path d="M60 8 L 60 50"/>
    <path d="M76 16 L 76 50"/>
    <!-- 香頭火光 -->
    <circle cx="44" cy="16" r="2" fill="#f1d990"/>
    <circle cx="60" cy="8" r="2.5" fill="#f1d990"/>
    <circle cx="76" cy="16" r="2" fill="#f1d990"/>
    <!-- 煙縷 -->
    <path d="M44 14 Q 42 10 44 6"/>
    <path d="M60 6 Q 58 2 60 -2" stroke-dasharray="2 2"/>
    <path d="M60 6 Q 62 2 60 -2"/>
    <path d="M76 14 Q 78 10 76 6"/>
    <!-- 香爐主體 -->
    <path d="M28 54 L 92 54 L 92 60 L 28 60 Z"/>
    <path d="M30 60 Q 28 78 32 92 Q 60 100 88 92 Q 92 78 90 60"/>
    <!-- 爐身雷紋裝飾 -->
    <path d="M40 70 L 80 70"/>
    <path d="M40 78 L 80 78"/>
    <!-- 兩側耳 -->
    <path d="M28 60 Q 22 64 22 72 L 30 72"/>
    <path d="M92 60 Q 98 64 98 72 L 90 72"/>
    <!-- 三足 -->
    <path d="M40 92 L 40 102 L 36 106"/>
    <path d="M60 96 L 60 108"/>
    <path d="M80 92 L 80 102 L 84 106"/>
  </g>
</svg>
