<svg viewBox="0 0 120 120" xmlns="http://www.w3.org/2000/svg" aria-label="委員會">
  <g fill="none" stroke="#f1d990" stroke-width="2.5" stroke-linecap="round" stroke-linejoin="round">
    <!-- 上方共結善緣弧線 -->
    <path d="M16 32 Q 60 8 104 32"/>
    <!-- 中央主委（較大、有冠飾） -->
    <circle cx="60" cy="38" r="9"/>
    <path d="M51 30 Q 60 22 69 30"/>
    <path d="M48 56 Q 50 72 60 72 Q 70 72 72 56 Q 64 50 60 50 Q 56 50 48 56 Z"/>
    <!-- 左側委員 1 -->
    <circle cx="22" cy="50" r="6"/>
    <path d="M14 70 Q 16 80 22 80 Q 28 80 30 70 Q 26 64 22 64 Q 18 64 14 70 Z"/>
    <!-- 左側委員 2 -->
    <circle cx="40" cy="58" r="6"/>
    <path d="M32 78 Q 34 88 40 88 Q 46 88 48 78 Q 44 72 40 72 Q 36 72 32 78 Z"/>
    <!-- 右側委員 1 -->
    <circle cx="98" cy="50" r="6"/>
    <path d="M90 70 Q 92 80 98 80 Q 104 80 106 70 Q 102 64 98 64 Q 94 64 90 70 Z"/>
    <!-- 右側委員 2 -->
    <circle cx="80" cy="58" r="6"/>
    <path d="M72 78 Q 74 88 80 88 Q 86 88 88 78 Q 84 72 80 72 Q 76 72 72 78 Z"/>
    <!-- 底部基座 / 共識線 -->
    <path d="M14 96 L 106 96"/>
    <!-- 中央印章 -->
    <rect x="50" y="100" width="20" height="14"/>
    <path d="M55 107 L 65 107"/>
    <path d="M60 102 L 60 112"/>
  </g>
</svg>
